<?xml version="1.0" encoding="UTF-8" standalone="no"?>
<!DOCTYPE svg PUBLIC "-//W3C//DTD SVG 20010904//EN" "http://www.w3.org/TR/2001/REC-SVG-20010904/DTD/svg10.dtd">
<svg version="1.0" xmlns="http://www.w3.org/2000/svg" width="512.000000pt" height="512.000000pt" viewBox="0 0 512.000000 512.000000" preserveAspectRatio="xMidYMid meet">

<g transform="translate(0.000000,512.000000) scale(0.100000,-0.100000)" fill="#000000" stroke="none">
<path d="M2335 5049 c-587 -55 -1123 -306 -1540 -724 -389 -388 -628 -867 -710 -1420 -35 -236 -29 -537 16 -785 127 -710 547 -1320 1168 -1697 781 -475 1772 -481 2559 -14 662 392 1100 1051 1207 1814 46 327 22 677 -69 1007 -235 852 -920 1527 -1771 1746 -292 75 -579 99 -860 73z m891 -1189 c273 -69 499 -284 584 -555 28 -90 38 -277 20 -379 -35 -203 -160 -396 -337 -522 -258 -185 -627 -193 -899 -19 -129 83 -260 237 -313 369 -20 49 -22 60 -11 86 14 33 45 46 85 36 19 -5 33 -24 60 -80 83 -175 210 -292 396 -362 68 -26 85 -28 214 -29 121 0 149 3 210 24 204 68 365 227 437 431 19 56 23 85 23 210 0 132 -3 151 -27 218 -38 106 -83 177 -163 257 -79 79 -169 135 -265 167 -91 30 -279 36 -370 13 -141 -36 -279 -124 -365 -233 -46 -57 -108 -173 -120 -224 -6 -24 -4 -28 14 -28 29 0 61 -35 61 -67 0 -20 -19 -45 -73 -100 -93 -93 -106 -94 -189 -15 -72 68 -91 102 -79 134 14 38 37 51 76 45 l34 -6 16 57 c82 280 305 498 585 571 105 28 288 28 396 1z m-115 -340 c240 -44 412 -286 370 -519 -36 -199 -185 -348 -382 -381 -297 -50 -572 226 -520 521 46 255 284 425 532 379z m-2023 -1068 c10 -7 12 -120 10 -533 l-3 -524 -102 -3 -103 -3 0 536 0 535 93 0 c50 0 98 -4 105 -8z m210 -526 c2 -345 0 -441 -10 -448 -7 -4 -34 -8 -60 -8 l-48 0 0 450 0 451 58 -3 57 -3 3 -439z m708 369 c131 -21 193 -42 549 -187 176 -72 357 -145 402 -163 135 -55 150 -64 168 -102 21 -43 14 -76 -25 -114 -20 -21 -38 -29 -62 -29 -18 0 -186 47 -372 105 -350 107 -376 111 -376 66 0 -10 6 -24 14 -30 21 -18 693 -221 731 -221 18 0 46 5 62 11 54 20 113 92 113 139 0 11 2 20 5 20 3 0 199 54 436 120 237 66 448 120 471 120 32 0 47 -7 74 -34 30 -30 34 -40 34 -86 0 -47 -4 -56 -32 -82 -39 -35 -1099 -549 -1183 -573 -44 -13 -83 -16 -159 -13 l-101 5 -450 183 c-247 101 -479 192 -515 202 -101 28 -268 21 -393 -18 -16 -5 -17 13 -15 328 l3 333 160 16 c209 21 349 22 461 4z"/>
<path d="M3002 3408 c-7 -7 -12 -25 -12 -40 0 -18 -6 -31 -17 -35 -34 -11 -83 -68 -94 -105 -11 -43 0 -98 27 -137 20 -28 88 -60 127 -61 35 0 77 -41 77 -74 0 -39 -41 -79 -80 -79 -36 0 -80 39 -80 72 0 40 -51 56 -70 21 -23 -44 21 -125 87 -159 14 -7 23 -22 25 -43 6 -63 70 -63 76 1 2 22 11 35 31 46 76 39 106 122 73 198 -24 55 -67 86 -133 96 -58 9 -76 24 -85 68 -5 27 -1 37 24 63 17 16 40 30 52 30 27 0 80 -52 80 -77 0 -42 51 -58 70 -23 23 43 -33 142 -92 163 -12 4 -18 17 -18 35 0 31 -16 52 -40 52 -9 0 -21 -5 -28 -12z"/>
<path d="M973 1583 c-22 -8 -16 -61 7 -68 39 -12 66 35 38 63 -13 13 -24 14 -45 5z"/>
</g>
</svg>